<?xml version="1.0" encoding="UTF-8"?>
<svg version="1.1" xmlns="http://www.w3.org/2000/svg" width="446" height="430">
<path d="M0 0 C1.93095435 1.66872191 3.80140101 3.40970249 5.609375 5.2109375 C6.10286438 5.7015567 6.59635376 6.1921759 7.10479736 6.69766235 C8.13686451 7.7277044 9.1652191 8.76147891 10.18994141 9.79882812 C11.7497332 11.37473044 13.32495463 12.93392122 14.90234375 14.4921875 C15.90981768 15.50164346 16.91636081 16.51202944 17.921875 17.5234375 C18.82518555 18.43013184 19.72849609 19.33682617 20.65917969 20.27099609 C25.89779356 26.3783413 27.32903987 32.19744951 26.8125 40.0625 C25.36599673 55.5731977 17.93717246 67.39786919 8 79 C7.360625 78.34 6.72125 77.68 6.0625 77 C-2.26192637 68.57666376 -2.26192637 68.57666376 -12 62 C-21.38445454 62.81138025 -29.14103505 72.8502315 -35.65014648 79.07910156 C-38.91858397 82.18001303 -42.28184553 85.03742517 -45.8359375 87.80859375 C-51.16725704 92.02342242 -55.88909841 96.69849616 -60.625 101.5625 C-65.69585497 106.74448572 -70.7807458 111.79193263 -76.28515625 116.5144043 C-78.34497889 118.29886056 -80.27918172 120.18006154 -82.1875 122.125 C-82.8475 122.7953125 -83.5075 123.465625 -84.1875 124.15625 C-85.0846875 125.06890625 -85.0846875 125.06890625 -86 126 C-86.886875 126.86625 -87.77375 127.7325 -88.6875 128.625 C-90.48710163 130.47323951 -92.07959557 132.30729361 -93.6875 134.3125 C-94.450625 135.199375 -95.21375 136.08625 -96 137 C-96.66 137 -97.32 137 -98 137 C-98.22300781 137.55171875 -98.44601563 138.1034375 -98.67578125 138.671875 C-100.41554097 141.7305676 -102.65764482 143.8073812 -105.1875 146.25 C-109.69127918 150.66202879 -113.92781264 155.18890767 -118 160 C-119.44983412 161.6974964 -120.90172183 163.39322057 -122.35400391 165.08862305 C-123.41182745 166.32372908 -124.46879061 167.5595725 -125.52490234 168.79614258 C-128.32745309 172.07250586 -131.163218 175.30840356 -134.0625 178.5 C-152.42723878 199.13666523 -172.04119751 224.70767021 -172.1875 253.5 C-172.20167969 254.7684375 -172.21585938 256.036875 -172.23046875 257.34375 C-172.00497105 260.92113728 -171.29766722 263.6763306 -170 267 C-173.71268094 265.45872649 -175.98115698 263.19156766 -178.75 260.3125 C-181.67316184 257.32985522 -184.57987091 254.40670555 -187.75 251.6875 C-214.69689713 228.47255604 -214.69689713 228.47255604 -216.3828125 212.3359375 C-217.00136434 202.07354271 -214.60100744 194.08606456 -210 185 C-209.43152344 183.87207031 -208.86304688 182.74414062 -208.27734375 181.58203125 C-200.55964173 167.3427891 -190.47737811 154.30108556 -180 142 C-179.09089938 140.91687347 -178.18206002 139.83352763 -177.2734375 138.75 C-170.42493738 130.62943912 -163.26577719 122.83871687 -155.97338867 115.11694336 C-153.59744764 112.56816386 -151.26284218 109.98327875 -148.921875 107.40234375 C-143.14941865 101.07204077 -137.14195678 94.9896033 -131.07397461 88.94360352 C-129.30008997 87.17512781 -127.53168223 85.40129956 -125.76367188 83.62695312 C-120.57893679 78.43913671 -115.39426251 73.32005722 -109.80883789 68.55932617 C-106.45853376 65.67116414 -103.27492747 62.60203504 -100.0625 59.5625 C-90.79774095 50.84975272 -90.79774095 50.84975272 -86.625 47.0625 C-85.95726562 46.45535156 -85.28953125 45.84820312 -84.6015625 45.22265625 C-83 44 -83 44 -81 44 C-81 43.34 -81 42.68 -81 42 C-79.51261765 40.64617851 -77.95569449 39.36860114 -76.375 38.125 C-72.47778489 35.01222435 -68.64461762 31.85822111 -64.87963867 28.58691406 C-17.99247748 -12.14822361 -17.99247748 -12.14822361 0 0 Z " fill="#BE9D45" transform="translate(307,72)"/>
<path d="M0 0 C1.64370098 1.21534837 3.31074052 2.38659107 4.99365234 3.546875 C6.00041016 4.248125 7.00716797 4.949375 8.04443359 5.671875 C8.93904297 6.28933594 9.83365234 6.90679687 10.75537109 7.54296875 C11.38701172 8.10113281 12.01865234 8.65929687 12.66943359 9.234375 C12.66943359 10.224375 12.66943359 11.214375 12.66943359 12.234375 C12.00298828 12.26015625 11.33654297 12.2859375 10.64990234 12.3125 C-5.13004697 13.2835738 -17.69013119 21.1659923 -30.28759766 30.0859375 C-33.26950948 32.19126677 -36.28534922 34.22243778 -39.33056641 36.234375 C-40.32056641 35.574375 -41.31056641 34.914375 -42.33056641 34.234375 C-51.79972417 32.27523891 -59.07664792 34.51250279 -67.37744141 39.27734375 C-73.11958335 43.0826521 -78.21808975 47.63393376 -83.33056641 52.234375 C-83.83152832 52.68425781 -84.33249023 53.13414063 -84.84863281 53.59765625 C-87.19681888 55.71266143 -89.53151185 57.84152124 -91.85791016 59.98046875 C-93.94190746 61.88009978 -96.05712909 63.72137607 -98.20556641 65.546875 C-102.539821 69.30144534 -106.52151077 73.39643976 -110.54833984 77.47363281 C-113.4265501 80.37525675 -116.31935553 83.17045972 -119.45556641 85.796875 C-123.94812707 89.60557865 -127.78984405 94.01050843 -131.72509766 98.375 C-133.79371721 100.64520916 -135.88803657 102.83618846 -138.08056641 104.984375 C-140.93033607 107.79400706 -143.58348152 110.72118874 -146.19384766 113.75390625 C-147.88804354 115.72066016 -149.59487705 117.67361573 -151.31103516 119.62109375 C-158.31132935 127.58806048 -165.10550346 135.64317883 -171.33056641 144.234375 C-171.73339844 144.78996094 -172.13623047 145.34554687 -172.55126953 145.91796875 C-190.69872937 171.28414875 -201.85184532 198.01121221 -198.03173828 229.71435547 C-197.37070455 233.61912672 -196.45342358 237.43804838 -195.33056641 241.234375 C-200.89639789 238.76626873 -204.95969961 234.3683422 -209.33056641 230.234375 C-210.16467041 229.45126953 -210.16467041 229.45126953 -211.015625 228.65234375 C-227.75860586 212.82227936 -240.80424791 194.73116865 -241.58056641 170.859375 C-241.23371068 140.06629467 -224.30610273 116.50470719 -203.95996094 94.9609375 C-202.07572724 92.96433866 -200.20123608 90.95879324 -198.32666016 88.953125 C-186.6165432 76.44969435 -186.6165432 76.44969435 -180.88232422 70.82568359 C-179.27175966 69.1740694 -177.79864381 67.45054634 -176.33056641 65.671875 C-172.42780472 61.14743446 -168.05350203 57.19389443 -163.66040039 53.15771484 C-157.2670603 47.25078225 -151.13465759 41.09758054 -145.02880859 34.89526367 C-140.30190386 30.11640939 -135.44379661 25.59593124 -130.33056641 21.234375 C-124.84306608 16.42136257 -119.45560925 11.60438942 -114.48681641 6.24609375 C-81.8068792 -28.03231864 -36.36332522 -27.29618852 0 0 Z " fill="#033685" transform="translate(276.33056640625,43.765625)"/>
<path d="M0 0 C6.85519394 10.28279091 4.940969 26.95899217 3.5703125 38.671875 C0.32807573 53.48209233 -8.75203592 65.41293164 -18 77 C-18.58418701 77.76296387 -19.16837402 78.52592773 -19.77026367 79.31201172 C-26.57849405 87.98543159 -34.37564231 95.64395368 -42.19311523 103.39892578 C-44.56620376 105.75367514 -46.93110931 108.11641141 -49.29492188 110.48046875 C-50.82244489 112.00307761 -52.35042412 113.52522896 -53.87890625 115.046875 C-54.57496475 115.74182068 -55.27102325 116.43676636 -55.98817444 117.152771 C-59.95982496 121.08666325 -64.02894666 124.84963868 -68.27305603 128.48857117 C-70.64146311 130.56141129 -72.81812296 132.79585409 -75 135.0625 C-79.07990687 139.16732234 -83.10991297 142.88901024 -88 146 C-88.95712891 146.61875 -88.95712891 146.61875 -89.93359375 147.25 C-98.15146736 151.72400302 -107.99411181 151.09503804 -116.875 149.15234375 C-141.09366857 141.71014872 -161.34227533 123.78239094 -179.7421875 107.0390625 C-181.77984192 105.19882789 -183.85006387 103.40819442 -185.9375 101.625 C-190.34882755 97.79765675 -194.40461203 93.6261397 -198.484375 89.453125 C-200.5715248 87.41782985 -202.61875478 85.66909711 -205 84 C-204.48668539 79.83337605 -202.26941899 77.93733427 -199.3359375 75.078125 C-198.86564117 74.61444519 -198.39534485 74.15076538 -197.91079712 73.67303467 C-196.4058144 72.19140164 -194.89108668 70.7202616 -193.375 69.25 C-191.39977238 67.32163349 -189.42910885 65.38869138 -187.4609375 63.453125 C-186.98376785 62.98531616 -186.50659821 62.51750732 -186.01496887 62.03552246 C-182.65872472 58.72053719 -179.52150973 55.28147022 -176.51586914 51.64746094 C-174.00518207 48.91882246 -171.09526048 47.0213946 -168 45 C-163.12137911 48.75893741 -158.35149801 52.50583262 -154.0625 56.9375 C-150.22938472 60.88630286 -146.06425481 64.28412457 -141.7734375 67.72265625 C-139.17274173 69.85815714 -136.71113758 72.08148142 -134.25 74.375 C-121.87271713 85.5931405 -107.08055814 97.68442113 -89.65625 97.453125 C-71.81195841 95.24165297 -55.32047694 78.02126981 -43 66 C-42.2147998 65.24058105 -41.42959961 64.48116211 -40.62060547 63.69873047 C-37.9648768 61.12300869 -35.3241724 58.53271832 -32.6875 55.9375 C-31.8512207 55.1228125 -31.01494141 54.308125 -30.15332031 53.46875 C-15.06722401 38.46069558 -4.53921745 20.81397271 0 0 Z " fill="#A88429" transform="translate(397,193)"/>
<path d="M0 0 C3.31147152 1.10382384 3.95031248 1.8582599 6.09765625 4.48046875 C10.26315285 9.39179593 14.83180741 13.81831988 19.4375 18.3125 C39.1097453 37.74936379 39.1097453 37.74936379 39.38110352 49.56884766 C39.32039567 70.02010656 27.09331754 84.14699243 14.51318359 99.18261719 C12.41592025 101.70149881 10.3675547 104.25914 8.3125 106.8125 C4.47490308 111.50211385 0.44017244 115.98486249 -3.66015625 120.4453125 C-5.65834848 122.62697815 -7.62148889 124.83011309 -9.5625 127.0625 C-10.10390625 127.68253906 -10.6453125 128.30257812 -11.203125 128.94140625 C-12.59049475 130.53084942 -13.97544349 132.122406 -15.359375 133.71484375 C-16.16890625 134.63394531 -16.9784375 135.55304688 -17.8125 136.5 C-18.56144531 137.3559375 -19.31039062 138.211875 -20.08203125 139.09375 C-22 141 -22 141 -24 141 C-24.22558594 141.54398438 -24.45117188 142.08796875 -24.68359375 142.6484375 C-26.41223787 145.73640119 -28.64550144 148.04454974 -31.0625 150.625 C-34.41533647 154.04209753 -34.41533647 154.04209753 -37 158 C-41.4311575 157.49895039 -43.44373112 156.06423223 -46.625 153 C-50.16765892 149.67316428 -53.7611214 146.52830721 -57.5625 143.5 C-61.08049728 140.65797135 -64.34492856 137.73943164 -67.5 134.5 C-71.40093679 130.49549852 -75.57554541 127.03910573 -79.9375 123.55078125 C-85.85331782 118.6234483 -91.40460379 113.28499466 -97 108 C-96.15425838 103.51888528 -93.58646592 101.28792528 -90.375 98.25 C-89.26893193 97.17643467 -88.16475602 96.10091639 -87.0625 95.0234375 C-86.53011719 94.50362305 -85.99773437 93.98380859 -85.44921875 93.44824219 C-83.6647348 91.66496072 -82.00743681 89.7978222 -80.375 87.875 C-76.86540933 83.74148211 -73.01622513 79.98366831 -69.13671875 76.19921875 C-66.8647287 73.99421935 -66.8647287 73.99421935 -65 71 C-61.86915901 71.57764438 -60.22256994 72.40030044 -57.984375 74.65234375 C-57.45585937 75.18150391 -56.92734375 75.71066406 -56.3828125 76.25585938 C-55.84398437 76.81080078 -55.30515625 77.36574219 -54.75 77.9375 C-53.91855469 78.76411133 -53.91855469 78.76411133 -53.0703125 79.60742188 C-49 83.73287408 -49 83.73287408 -49 86 C-44.17256274 83.51835308 -40.93049213 80.07126842 -37.3125 76.125 C-36.38667114 75.12025635 -36.38667114 75.12025635 -35.44213867 74.09521484 C-19.69856283 56.80775021 0.70932946 32.12681167 0.125 7.5625 C0.11597656 6.83095703 0.10695313 6.09941406 0.09765625 5.34570312 C0.07436153 3.56365702 0.0385019 1.78178241 0 0 Z " fill="#C6A551" transform="translate(348,109)"/>
<path d="M0 0 C3.2221248 1.38691459 5.03354401 2.92436673 7.25 5.625 C13.92384489 13.45096127 21.16794133 19.90167358 29.30859375 26.140625 C31.70155566 27.97587593 34.0420411 29.85315215 36.34765625 31.796875 C56.5957725 48.70055589 83.31163657 59.91528255 110 58 C113.70840737 57.48954863 117.35117782 56.8340165 121 56 C121 56.66 121 57.32 121 58 C119.453125 59.375 119.453125 59.375 117.25 61 C113.48840848 63.82412323 109.92357654 66.78802691 106.375 69.875 C88.90528986 84.69598548 69.03771979 92.6143964 46 91 C25.69847852 88.75906703 9.4627306 76.62359606 -5 63 C-5.67289063 62.3915625 -6.34578125 61.783125 -7.0390625 61.15625 C-13.04271126 55.53581286 -16.59595979 49.1995339 -17.23828125 40.93359375 C-17.53660636 26.88091111 -13.07602309 18.25845595 -5 7 C-4.46246094 6.236875 -3.92492187 5.47375 -3.37109375 4.6875 C-2.25934202 3.11647761 -1.13199801 1.55649727 0 0 Z " fill="#062878" transform="translate(168,300)"/>
<path d="M0 0 C0.99 0.495 0.99 0.495 2 1 C-9 12 -9 12 -11.875 14.4375 C-15.42692258 17.46376807 -18.87461096 20.59577027 -22.3125 23.75 C-23.10406494 24.4759436 -23.10406494 24.4759436 -23.91162109 25.21655273 C-25.97453938 27.11415815 -28.01778737 29.01778737 -30 31 C-31.3921875 32.1446875 -31.3921875 32.1446875 -32.8125 33.3125 C-36.83360382 36.65040657 -40.41567313 40.23706653 -43.6875 44.3125 C-44.8321875 45.6428125 -44.8321875 45.6428125 -46 47 C-46.66 47 -47.32 47 -48 47 C-48.33 48.32 -48.66 49.64 -49 51 C-49.99 51 -50.98 51 -52 51 C-53.25537698 52.42055816 -54.50313239 53.85026277 -55.67578125 55.33984375 C-58.137854 58.42651313 -60.607622 61.32370211 -64.1875 63.0625 C-66.60077747 64.31074697 -66.90423633 65.53453175 -68 68 C-70.56096382 72.32714577 -72.58978002 74.62526616 -77 77 C-78.75149165 78.58245275 -78.75149165 78.58245275 -80 80 C-80.66 79.67 -81.32 79.34 -82 79 C-74.19810425 70.41720315 -66.21512539 62.05477516 -57.99853516 53.86816406 C-56.23351456 52.1085652 -54.47398867 50.34359603 -52.71484375 48.578125 C-47.54700736 43.40720585 -42.37788014 38.30717462 -36.81103516 33.56152344 C-33.46021925 30.67235944 -30.27568681 27.60275352 -27.0625 24.5625 C-17.79774095 15.84975272 -17.79774095 15.84975272 -13.625 12.0625 C-12.95726562 11.45535156 -12.28953125 10.84820312 -11.6015625 10.22265625 C-10 9 -10 9 -8 9 C-8 8.34 -8 7.68 -8 7 C-6.25 5.2734375 -6.25 5.2734375 -4 3.375 C-3.2575 2.74335937 -2.515 2.11171875 -1.75 1.4609375 C-0.88375 0.73777344 -0.88375 0.73777344 0 0 Z " fill="#E4CC8A" transform="translate(234,107)"/>
<path d="M0 0 C0.66 0.33 1.32 0.66 2 1 C-0.21928194 3.90802461 -1.92969143 5.95312762 -5 8 C-6.32 8 -7.64 8 -9 8 C-9.66 10.31 -10.32 12.62 -11 15 C-12.65 15 -14.3 15 -16 15 C-16.2371875 15.5775 -16.474375 16.155 -16.71875 16.75 C-18.72784208 20.27816169 -21.81476535 22.43045431 -24.90625 25 C-26.9284985 26.93170006 -27.94760991 28.43765892 -29 31 C-29.66 31 -30.32 31 -31 31 C-31.495 31.495 -31.99 31.99 -32.5 32.5 C-32.995 32.995 -33.49 33.49 -34 34 C-34.66 34 -35.32 34 -36 34 C-37.37310707 35.29233607 -38.71034824 36.62437146 -40 38 C-40.66 37.67 -41.32 37.34 -42 37 C-40.44073252 35.41348318 -38.87743482 33.83092685 -37.3125 32.25 C-36.44238281 31.36828125 -35.57226562 30.4865625 -34.67578125 29.578125 C-32.21825708 27.21029149 -29.68380227 25.10253884 -27 23 C-24.65327561 20.7184624 -22.36690156 18.39542122 -20.140625 15.99609375 C-14.04770621 9.6029764 -7.35161822 4.80639028 0 0 Z " fill="#3166A3" transform="translate(182,34)"/>
<path d="M0 0 C4.69165623 7.03748434 4.28831427 15.50031982 4.1875 23.6875 C4.18685547 24.69361328 4.18621094 25.69972656 4.18554688 26.73632812 C4.15672076 31.59512985 4.01663968 36.22586008 3 41 C2.67 41 2.34 41 2 41 C2.01571045 40.03960815 2.01571045 40.03960815 2.03173828 39.05981445 C2.07344815 36.14408329 2.09937363 33.22841505 2.125 30.3125 C2.14175781 29.30509766 2.15851563 28.29769531 2.17578125 27.25976562 C2.18544922 25.79506836 2.18544922 25.79506836 2.1953125 24.30078125 C2.20578613 23.40528564 2.21625977 22.50979004 2.22705078 21.5871582 C1.97374501 18.70083432 1.29072216 16.58795741 0 14 C-0.66 13.67 -1.32 13.34 -2 13 C-2.10957031 13.58007812 -2.21914063 14.16015625 -2.33203125 14.7578125 C-3.3143365 19.59746277 -4.54821911 23.65366116 -7 28 C-7.66 28 -8.32 28 -9 28 C-7.64838443 23.82626118 -6.13078028 19.75947882 -4.5 15.6875 C-2.47480152 10.4781399 -1.02325212 5.48835229 0 0 Z " fill="#BEA563" transform="translate(397,193)"/>
<path d="M0 0 C0.99 0.33 1.98 0.66 3 1 C2.38836478 17.23996968 1.22545159 32.4055909 -10 45 C-10.94154249 46.12161892 -11.87915573 47.24654986 -12.8125 48.375 C-13.534375 49.24125 -14.25625 50.1075 -15 51 C-15 46.8160729 -12.8863647 44.06194257 -10.8125 40.5625 C-4.6564837 29.91752048 0.20553863 20.20536388 0.0625 7.75 C0.05798828 7.00492187 0.05347656 6.25984375 0.04882812 5.4921875 C0.03709246 3.6614236 0.0191585 1.83070127 0 0 Z " fill="#CEBA81" transform="translate(348,109)"/>
<path d="M0 0 C4.10606943 2.05303472 6.95761278 3.77624059 8.9375 8 C9 10 9 10 7.8125 12.25 C6 14 6 14 2 14 C1.87625 14.639375 1.7525 15.27875 1.625 15.9375 C1.41875 16.618125 1.2125 17.29875 1 18 C0.34 18.33 -0.32 18.66 -1 19 C-0.67 12.73 -0.34 6.46 0 0 Z " fill="#B99340" transform="translate(350,112)"/>
<path d="M0 0 C0.495 0.99 0.495 0.99 1 2 C0.34 2 -0.32 2 -1 2 C-1.33 3.32 -1.66 4.64 -2 6 C-2.99 6 -3.98 6 -5 6 C-6.25537698 7.42055816 -7.50313239 8.85026277 -8.67578125 10.33984375 C-11.137854 13.42651313 -13.607622 16.32370211 -17.1875 18.0625 C-19.60077747 19.31074697 -19.90423633 20.53453175 -21 23 C-23.56096382 27.32714577 -25.58978002 29.62526616 -30 32 C-31.75149165 33.58245275 -31.75149165 33.58245275 -33 35 C-33.66 34.67 -34.32 34.34 -35 34 C-27.6979862 25.86686268 -20.13844341 18.00640574 -12.4375 10.25 C-11.55674805 9.35635742 -10.67599609 8.46271484 -9.76855469 7.54199219 C-8.93614258 6.70829102 -8.10373047 5.87458984 -7.24609375 5.015625 C-6.12738892 3.89075684 -6.12738892 3.89075684 -4.98608398 2.74316406 C-3 1 -3 1 0 0 Z " fill="#D5BB76" transform="translate(187,152)"/>
<path d="M0 0 C0.05399736 1.45792884 0.09279177 2.91642712 0.125 4.375 C0.14820312 5.18710937 0.17140625 5.99921875 0.1953125 6.8359375 C0 9 0 9 -2 11 C-2.680625 11.144375 -3.36125 11.28875 -4.0625 11.4375 C-5.0215625 11.7159375 -5.0215625 11.7159375 -6 12 C-7.0541518 15.16245541 -7.31275672 17.86948218 -7.5625 21.1875 C-7.64628906 22.27417969 -7.73007813 23.36085938 -7.81640625 24.48046875 C-7.87699219 25.31191406 -7.93757813 26.14335937 -8 27 C-8.33 27 -8.66 27 -9 27 C-11.34814708 18.19444844 -10.29020106 10.92921089 -6 3 C-5.34 3 -4.68 3 -4 3 C-4 2.34 -4 1.68 -4 1 C-2 0 -2 0 0 0 Z " fill="#968040" transform="translate(101,260)"/>
<path d="M0 0 C0.69140625 1.765625 0.69140625 1.765625 1 4 C-0.22265625 5.859375 -0.22265625 5.859375 -2.0625 7.75 C-6.51940318 12.51888641 -10.38080481 17.57120722 -14 23 C-15.05644337 23.94753168 -16.14283073 24.86226969 -17.25 25.75 C-20.94197832 28.8305186 -23.98466025 32.26672221 -27 36 C-27.66 35.34 -28.32 34.68 -29 34 C-28.56768066 33.55309814 -28.13536133 33.10619629 -27.68994141 32.64575195 C-18.85887133 23.48278376 -10.49055919 14.29761192 -3 4 C-2.00177158 2.66533982 -1.00252824 1.3314334 0 0 Z " fill="#D5BC7B" transform="translate(331,160)"/>
<path d="M0 0 C0.99 0.33 1.98 0.66 3 1 C2.34128906 1.65613281 1.68257812 2.31226562 1.00390625 2.98828125 C-1.29398964 5.28455834 -3.5723472 7.59932048 -5.84765625 9.91796875 C-7.25250167 11.34124701 -8.65745184 12.76442189 -10.0625 14.1875 C-10.76955078 14.91130859 -11.47660156 15.63511719 -12.20507812 16.38085938 C-12.89150391 17.07373047 -13.57792969 17.76660156 -14.28515625 18.48046875 C-14.90269775 19.10848389 -15.52023926 19.73649902 -16.15649414 20.38354492 C-18.0133567 22.01171165 -19.74940987 23.00695547 -22 24 C-22.33 23.01 -22.66 22.02 -23 21 C-21.68 20.67 -20.36 20.34 -19 20 C-18.9175 19.401875 -18.835 18.80375 -18.75 18.1875 C-17.77705573 15.34974589 -16.55550687 14.50323933 -14 13 C-13.01 13 -12.02 13 -11 13 C-10.67 11.68 -10.34 10.36 -10 9 C-8.68 8.67 -7.36 8.34 -6 8 C-5.9071875 7.13375 -5.9071875 7.13375 -5.8125 6.25 C-4.65310925 3.03937946 -2.82684384 1.81725675 0 0 Z " fill="#4A76A8" transform="translate(179,104)"/>
<path d="M0 0 C0.99 0.66 1.98 1.32 3 2 C1.45964394 3.39727951 -0.08235464 4.79274837 -1.625 6.1875 C-2.53378906 7.00992188 -3.44257813 7.83234375 -4.37890625 8.6796875 C-6.39924512 10.46818421 -8.43476362 12.15817196 -10.5625 13.8125 C-13.14576125 15.71166454 -13.14576125 15.71166454 -13.5 18.125 C-14 20 -14 20 -16.9375 21.8125 C-17.948125 22.204375 -18.95875 22.59625 -20 23 C-20.66 22.67 -21.32 22.34 -22 22 C-21.43152344 21.443125 -20.86304688 20.88625 -20.27734375 20.3125 C-16.48399987 16.56348568 -12.77060368 12.81288414 -9.3125 8.75 C-6.45909752 5.41658589 -3.45662446 2.69785324 0 0 Z " fill="#B79F5C" transform="translate(228,238)"/>
<path d="M0 0 C0.94875 0.495 1.8975 0.99 2.875 1.5 C5.72278166 3.14424369 5.72278166 3.14424369 8 3 C8.66 2.34 9.32 1.68 10 1 C10.66 1 11.32 1 12 1 C12 3.97 12 6.94 12 10 C12.66 10 13.32 10 14 10 C14.66 11.98 15.32 13.96 16 16 C12.12678907 14.42369323 9.75264837 11.92252331 6.875 8.9375 C3.75894235 5.53546517 3.75894235 5.53546517 0 3 C0 2.01 0 1.02 0 0 Z " fill="#907443" transform="translate(121,323)"/>
<path d="M0 0 C0.99 0.66 1.98 1.32 3 2 C5.11280345 2.63292383 5.11280345 2.63292383 7 3 C6.625 5.4375 6.625 5.4375 6 8 C2.78548731 9.60725635 -0.43612536 9.05748185 -4 9 C-4.6875 7.1875 -4.6875 7.1875 -5 5 C-3.6875 3.25 -3.6875 3.25 -2 2 C-1.34 2 -0.68 2 0 2 C0 1.34 0 0.68 0 0 Z " fill="#072575" transform="translate(276,46)"/>
<path d="M0 0 C0 3.61537605 -0.89229241 5.11165997 -3 8 C-3.99 8 -4.98 8 -6 8 C-6.268125 8.763125 -6.53625 9.52625 -6.8125 10.3125 C-7.9635558 12.91752101 -8.80453756 14.24363005 -11 16 C-11.99 16.33 -12.98 16.66 -14 17 C-14.495 18.2375 -14.495 18.2375 -15 19.5 C-15.495 20.7375 -15.495 20.7375 -16 22 C-16.99 22.33 -17.98 22.66 -19 23 C-19.66 22.34 -20.32 21.68 -21 21 C-14.07 14.07 -7.14 7.14 0 0 Z " fill="#4573A5" transform="translate(138,72)"/>
<path d="M0 0 C0 0.99 0 1.98 0 3 C-2.84185295 3 -4.8913565 2.56058043 -7.625 1.875 C-16.0308557 0.17918876 -21.96843464 2.5659396 -29.0546875 7.07421875 C-31 8 -31 8 -34 7 C-34 6.34 -34 5.68 -34 5 C-33.360625 4.87625 -32.72125 4.7525 -32.0625 4.625 C-31.381875 4.41875 -30.70125 4.2125 -30 4 C-29.67 3.34 -29.34 2.68 -29 2 C-28.01 2.33 -27.02 2.66 -26 3 C-25.67 2.34 -25.34 1.68 -25 1 C-24.34 1.33 -23.68 1.66 -23 2 C-23 1.34 -23 0.68 -23 0 C-15.19387246 -1.32870256 -7.80612754 -1.32870256 0 0 Z " fill="#5F81B0" transform="translate(239,76)"/>
<path d="M0 0 C3 1 3 1 4.1875 3.0625 C5.25719917 6.9298739 5.26323609 9.98564965 5 14 C4.34 14.66 3.68 15.32 3 16 C2.34 16 1.68 16 1 16 C1 13.36 1 10.72 1 8 C0.67 8.66 0.34 9.32 0 10 C-0.66 10 -1.32 10 -2 10 C-2.33 10.99 -2.66 11.98 -3 13 C-4 11 -4 11 -3.22265625 8.3984375 C-2.83980469 7.40070313 -2.45695312 6.40296875 -2.0625 5.375 C-1.68222656 4.37210938 -1.30195313 3.36921875 -0.91015625 2.3359375 C-0.60980469 1.56507813 -0.30945313 0.79421875 0 0 Z " fill="#A37F20" transform="translate(395,206)"/>
<path d="M0 0 C0.33 0 0.66 0 1 0 C1.61390089 13.59108359 -0.01787196 23.58293981 -8 35 C-8.62109375 33.14453125 -8.62109375 33.14453125 -9 31 C-8.360625 30.236875 -7.72125 29.47375 -7.0625 28.6875 C-4.63851385 26.09359051 -4.63851385 26.09359051 -5 22.4375 C-5 21.303125 -5 20.16875 -5 19 C-4.35546875 18.42894531 -3.7109375 17.85789063 -3.046875 17.26953125 C-0.24263262 14.16024723 -0.33310967 11.24681972 -0.25 7.25 C-0.22035156 6.55261719 -0.19070313 5.85523438 -0.16015625 5.13671875 C-0.08981542 3.42509187 -0.04260054 1.71254185 0 0 Z " fill="#D5BA6F" transform="translate(386,153)"/>
<path d="M0 0 C0 3.34824782 -0.44372896 3.9781691 -2.375 6.5625 C-2.81585938 7.16191406 -3.25671875 7.76132813 -3.7109375 8.37890625 C-5.30563812 10.38436309 -6.58134099 11.81092819 -8.9375 12.875 C-11.14284064 13.88686435 -11.14284064 13.88686435 -12.5 16.0625 C-14.24509481 18.3165808 -15.23423473 18.61851514 -18 19 C-14.54030282 11.11957865 -6.42159243 5.46518505 0 0 Z " fill="#3B669C" transform="translate(116,94)"/>
<path d="M0 0 C-3.56320845 5.09210286 -7.04741286 9.22660027 -12 13 C-12.33 12.01 -12.66 11.02 -13 10 C-12.34 9.67 -11.68 9.34 -11 9 C-10.71125 8.236875 -10.4225 7.47375 -10.125 6.6875 C-7.89585032 1.36230911 -5.66457231 -0.25279909 0 0 Z " fill="#B5953D" transform="translate(376,273)"/>
<path d="M0 0 C0 0.66 0 1.32 0 2 C-1.75 3.2890625 -1.75 3.2890625 -4 4.625 C-4.7425 5.07101562 -5.485 5.51703125 -6.25 5.9765625 C-7.11625 6.48316406 -7.11625 6.48316406 -8 7 C-8 6.34 -8 5.68 -8 5 C-13.28 4.67 -18.56 4.34 -24 4 C-24 3.67 -24 3.34 -24 3 C-22.73542969 2.86722656 -21.47085937 2.73445313 -20.16796875 2.59765625 C-18.50779375 2.41944537 -16.84763852 2.24105037 -15.1875 2.0625 C-14.35412109 1.97548828 -13.52074219 1.88847656 -12.66210938 1.79882812 C-11.45844727 1.66831055 -11.45844727 1.66831055 -10.23046875 1.53515625 C-9.49207764 1.456604 -8.75368652 1.37805176 -7.99291992 1.29711914 C-5.1411758 0.87196018 -2.93862411 0 0 0 Z " fill="#2B457F" transform="translate(289,356)"/>
<path d="M0 0 C0.33 0.99 0.66 1.98 1 3 C0.113125 3.721875 -0.77375 4.44375 -1.6875 5.1875 C-5.19080607 8.10416755 -8.47789063 11.21317595 -11.4375 14.6875 C-13.70285245 16.59039606 -16.1895553 17.18809375 -19 18 C-15.00323682 13.94210086 -10.87084366 10.05203065 -6.6875 6.1875 C-6.04232422 5.59001953 -5.39714844 4.99253906 -4.73242188 4.37695312 C-3.15576508 2.91708572 -1.57799662 1.45841907 0 0 Z " fill="#BAA15B" transform="translate(354,259)"/>
<path d="M0 0 C0.05399736 1.45792884 0.09279177 2.91642712 0.125 4.375 C0.14820312 5.18710937 0.17140625 5.99921875 0.1953125 6.8359375 C0 9 0 9 -2 11 C-2.99 10.67 -3.98 10.34 -5 10 C-4.67 8.68 -4.34 7.36 -4 6 C-4.66 5.67 -5.32 5.34 -6 5 C-6 4.34 -6 3.68 -6 3 C-5.34 3 -4.68 3 -4 3 C-4 2.34 -4 1.68 -4 1 C-2 0 -2 0 0 0 Z M-7 9 C-6.34 9.66 -5.68 10.32 -5 11 C-5.99 11.495 -5.99 11.495 -7 12 C-7 11.01 -7 10.02 -7 9 Z " fill="#907017" transform="translate(101,260)"/>
<path d="M0 0 C0.66 0 1.32 0 2 0 C1.43770914 4.10084544 -0.76132032 6.45399746 -3.375 9.5625 C-4.16648437 10.51253906 -4.95796875 11.46257812 -5.7734375 12.44140625 C-7.45989355 14.37935136 -9.14712551 16.2248267 -11 18 C-11 16.68 -11 15.36 -11 14 C-10.34 14 -9.68 14 -9 14 C-8.938125 13.46375 -8.87625 12.9275 -8.8125 12.375 C-7.59964736 8.82973843 -5.55389074 6.7407608 -3 4 C-2.34 4 -1.68 4 -1 4 C-0.67 2.68 -0.34 1.36 0 0 Z " fill="#344B83" transform="translate(119,165)"/>
<path d="M0 0 C0.33 0.66 0.66 1.32 1 2 C0.34 2 -0.32 2 -1 2 C-1.33 3.32 -1.66 4.64 -2 6 C-2.99 6 -3.98 6 -5 6 C-6.25471915 7.41981378 -7.50203452 8.84848669 -8.67578125 10.3359375 C-11.73463029 14.17980089 -14.11558188 17.03963872 -19 18 C-5.7 1.9 -5.7 1.9 0 0 Z " fill="#DEC57C" transform="translate(187,152)"/>
<path d="M0 0 C0.33 1.32 0.66 2.64 1 4 C0.443125 4.20625 -0.11375 4.4125 -0.6875 4.625 C-3.23886845 6.14202989 -4.61554267 7.95906377 -6.4296875 10.26953125 C-9.51480213 13.66929687 -13.31507361 16.28648122 -17 19 C-17.66 18.67 -18.32 18.34 -19 18 C-18.49549316 17.52578613 -17.99098633 17.05157227 -17.47119141 16.56298828 C-15.1888209 14.41731815 -12.90690525 12.27116491 -10.625 10.125 C-9.8309375 9.37863281 -9.036875 8.63226563 -8.21875 7.86328125 C-7.45820313 7.14785156 -6.69765625 6.43242187 -5.9140625 5.6953125 C-5.2123291 5.03547363 -4.5105957 4.37563477 -3.78759766 3.69580078 C-2.50784464 2.48176576 -1.24732691 1.24732691 0 0 Z " fill="#E8D691" transform="translate(204,134)"/>
<path d="M0 0 C-4.41009417 4.85110358 -9.58004353 8.348107 -15 12 C-15.33 11.01 -15.66 10.02 -16 9 C-14.68 8.67 -13.36 8.34 -12 8 C-12 7.34 -12 6.68 -12 6 C-11.34 6 -10.68 6 -10 6 C-9.67 5.01 -9.34 4.02 -9 3 C-6.03848967 0.1442579 -4.06571818 -0.33880985 0 0 Z " fill="#35589D" transform="translate(278,366)"/>
<path d="M0 0 C4.94515667 2.62711448 8.87775489 6.26645294 13 10 C12.01 10.99 11.02 11.98 10 13 C9.34 12.67 8.68 12.34 8 12 C8 11.01 8 10.02 8 9 C5.60931266 7.89363605 5.60931266 7.89363605 3 7 C2.01 7.495 2.01 7.495 1 8 C1.33 6.35 1.66 4.7 2 3 C1.01 2.67 0.02 2.34 -1 2 C-0.67 1.34 -0.34 0.68 0 0 Z " fill="#B79A4F" transform="translate(260,266)"/>
<path d="M0 0 C0.99 0 1.98 0 3 0 C3 0.66 3 1.32 3 2 C3.66 2 4.32 2 5 2 C5.99 3.485 5.99 3.485 7 5 C7.66 4.34 8.32 3.68 9 3 C9.33 3.66 9.66 4.32 10 5 C9.67 5.66 9.34 6.32 9 7 C9.78375 6.175 10.5675 5.35 11.375 4.5 C14 2 14 2 16 2 C14.44499019 5.81684226 11.96404505 8.19195732 9 11 C7.87278564 9.73113036 6.74831342 8.45982438 5.625 7.1875 C4.99851562 6.47980469 4.37203125 5.77210938 3.7265625 5.04296875 C2 3 2 3 0 0 Z " fill="#DAC372" transform="translate(305,140)"/>
<path d="M0 0 C2.4375 0.75 2.4375 0.75 5 2 C5.66015625 4.078125 5.66015625 4.078125 6 6 C4.93072266 6.09087891 4.93072266 6.09087891 3.83984375 6.18359375 C-1.46960288 6.64808101 -6.733409 7.18075251 -12 8 C-9.6870518 5.6870518 -8.52095125 5.50419025 -5.375 4.875 C-4.55773437 4.70742188 -3.74046875 4.53984375 -2.8984375 4.3671875 C-2.27195312 4.24601562 -1.64546875 4.12484375 -1 4 C-0.67 2.68 -0.34 1.36 0 0 Z " fill="#576BA9" transform="translate(283,50)"/>
<path d="M0 0 C-0.33 2.97 -0.66 5.94 -1 9 C-3.4375 8.25 -3.4375 8.25 -6 7 C-7 5.0625 -7 5.0625 -7 3 C-4.8243318 -0.20624788 -4.07796486 0 0 0 Z " fill="#947313" transform="translate(199,271)"/>
<path d="M0 0 C0.66 0 1.32 0 2 0 C1.41347648 4.48993869 0.2356462 8.22543184 -1.5625 12.375 C-2.01753906 13.43460938 -2.47257812 14.49421875 -2.94140625 15.5859375 C-3.29074219 16.38257813 -3.64007813 17.17921875 -4 18 C-6 15 -6 15 -5.8125 12.625 C-4.91167666 9.71464769 -3.76977938 7.47769114 -2 5 C-1.34 5 -0.68 5 0 5 C0 3.35 0 1.7 0 0 Z " fill="#37467B" transform="translate(85,214)"/>
<path d="M0 0 C0.99 0.33 1.98 0.66 3 1 C1.046875 3.19726562 1.046875 3.19726562 -0.90625 5.39453125 C-2.28151241 7.089448 -2.28151241 7.089448 -2 10 C-1.01 10.33 -0.02 10.66 1 11 C0.67 11.66 0.34 12.32 0 13 C-4.75040783 10.56389342 -4.75040783 10.56389342 -5.84375 8.09375 C-6 6 -6 6 -4.78515625 4.296875 C-4.21667969 3.78640625 -3.64820313 3.2759375 -3.0625 2.75 C-2.21365234 1.96882812 -2.21365234 1.96882812 -1.34765625 1.171875 C-0.90292969 0.78515625 -0.45820313 0.3984375 0 0 Z " fill="#AA8E47" transform="translate(257,208)"/>
<path d="M0 0 C1.65 0.33 3.3 0.66 5 1 C5 1.99 5 2.98 5 4 C5.66 4.33 6.32 4.66 7 5 C7 6.32 7 7.64 7 9 C3.4213696 7.34832443 0.25179812 5.21713508 -3 3 C-2.01 2.67 -1.02 2.34 0 2 C0 1.34 0 0.68 0 0 Z " fill="#D1B469" transform="translate(298,131)"/>
<path d="M0 0 C0.66 0.33 1.32 0.66 2 1 C1.3503125 1.7734375 1.3503125 1.7734375 0.6875 2.5625 C-1.40319031 5.582386 -2.62526065 8.5958835 -4 12 C-4.66 12 -5.32 12 -6 12 C-6 12.66 -6 13.32 -6 14 C-6.66 14 -7.32 14 -8 14 C-6.58465326 9.16423199 -4.6634683 5.24490261 -2 1 C-1.34 0.67 -0.68 0.34 0 0 Z " fill="#9E8641" transform="translate(103,249)"/>
<path d="M0 0 C2.97 0.495 2.97 0.495 6 1 C6 1.66 6 2.32 6 3 C6.66 3 7.32 3 8 3 C8.103125 3.639375 8.20625 4.27875 8.3125 4.9375 C8.6528125 5.9584375 8.6528125 5.9584375 9 7 C9.99 7.33 10.98 7.66 12 8 C11.67 8.66 11.34 9.32 11 10 C7.17664834 9.45864047 5.68624405 7.91516382 3.25 5 C2.63640625 4.278125 2.0228125 3.55625 1.390625 2.8125 C0 1 0 1 0 0 Z " fill="#A77D1B" transform="translate(284,244)"/>
<path d="M0 0 C0.66 0.33 1.32 0.66 2 1 C-0.08119446 2.93984166 -2.16484547 4.87692294 -4.25 6.8125 C-5.12978516 7.63331055 -5.12978516 7.63331055 -6.02734375 8.47070312 C-8.91536679 11.14780313 -11.77521291 13.72508832 -15 16 C-15 13 -15 13 -13.35546875 11.28125 C-12.64003906 10.6934375 -11.92460937 10.105625 -11.1875 9.5 C-8.17056027 7.0034828 -8.17056027 7.0034828 -5.36328125 4.28125 C-4 3 -4 3 -2 3 C-2 2.34 -2 1.68 -2 1 C-1.34 0.67 -0.68 0.34 0 0 Z " fill="#E2CA80" transform="translate(262,156)"/>
<path d="M0 0 C0.33 0.99 0.66 1.98 1 3 C-0.23414044 5.34282452 -1.49246493 7.48292584 -2.9375 9.6875 C-3.32357422 10.29400391 -3.70964844 10.90050781 -4.10742188 11.52539062 C-5.06246419 13.02280265 -6.03006086 14.51219401 -7 16 C-7.93423645 12.98968256 -8.04449911 12.13349732 -7 9 C-6.34 9 -5.68 9 -5 9 C-4.87625 7.88625 -4.87625 7.88625 -4.75 6.75 C-3.8603054 3.48778646 -2.51496251 2.19045122 0 0 Z " fill="#45598A" transform="translate(99,192)"/>
<path d="M0 0 C0.69921875 1.75390625 0.69921875 1.75390625 1 4 C-0.29296875 5.96484375 -0.29296875 5.96484375 -2.1875 7.9375 C-2.83460938 8.62714844 -3.48171875 9.31679687 -4.1484375 10.02734375 C-4.75945312 10.67832031 -5.37046875 11.32929688 -6 12 C-7.1446875 13.485 -7.1446875 13.485 -8.3125 15 C-8.869375 15.66 -9.42625 16.32 -10 17 C-10.66 17 -11.32 17 -12 17 C-10.25477062 12.94785821 -7.5771843 9.69396039 -4.875 6.25 C-4.40707031 5.64800781 -3.93914062 5.04601562 -3.45703125 4.42578125 C-2.30774993 2.94813384 -1.15428765 1.47373995 0 0 Z " fill="#DEC98A" transform="translate(331,160)"/>
<path d="M0 0 C0.33 0.66 0.66 1.32 1 2 C-0.25 4.5625 -0.25 4.5625 -2 7 C-2.99 7.33 -3.98 7.66 -5 8 C-5.67156616 9.93618425 -5.67156616 9.93618425 -6 12 C-6.33 12.66 -6.66 13.32 -7 14 C-9.0625 14.625 -9.0625 14.625 -11 15 C-9.44476633 11.50683117 -7.34563239 8.77131239 -4.9375 5.8125 C-4.22464844 4.93207031 -3.51179688 4.05164063 -2.77734375 3.14453125 C-1.88495567 2.06778168 -0.98887464 0.98887464 0 0 Z " fill="#426095" transform="translate(65,147)"/>
<path d="M0 0 C0.66 0 1.32 0 2 0 C2.33 1.32 2.66 2.64 3 4 C2.0409375 4.37125 2.0409375 4.37125 1.0625 4.75 C-1.18741541 5.81562433 -1.18741541 5.81562433 -1.75 8.125 C-1.8325 8.74375 -1.915 9.3625 -2 10 C-3.32 9.01 -4.64 8.02 -6 7 C-5.04882866 5.8274869 -4.08882991 4.66212985 -3.125 3.5 C-2.59132812 2.8503125 -2.05765625 2.200625 -1.5078125 1.53125 C-0.76144531 0.77328125 -0.76144531 0.77328125 0 0 Z " fill="#D4AF5B" transform="translate(240,102)"/>
<path d="M0 0 C-2.97 3.63 -5.94 7.26 -9 11 C-10 8 -10 8 -9 5 C-8.01 5 -7.02 5 -6 5 C-6 3.35 -6 1.7 -6 0 C-4 -1 -4 -1 0 0 Z " fill="#D6B871" transform="translate(355,217)"/>
<path d="M0 0 C-5.94 5.445 -5.94 5.445 -12 11 C-12.99 10.67 -13.98 10.34 -15 10 C-14.67 8.68 -14.34 7.36 -14 6 C-14 6.99 -14 7.98 -14 9 C-11.95880212 7.38405168 -9.95927063 5.7143618 -8 4 C-8 3.34 -8 2.68 -8 2 C-3.61016949 -1.20338983 -3.61016949 -1.20338983 0 0 Z " fill="#DABF75" transform="translate(278,145)"/>
<path d="M0 0 C3.63 1.65 7.26 3.3 11 5 C10.34 5.66 9.68 6.32 9 7 C5.19090105 6.67582137 3.21627837 6.14418558 0 4 C0 2.68 0 1.36 0 0 Z " fill="#2C467E" transform="translate(216,341)"/>
<path d="M0 0 C1.32 0.66 2.64 1.32 4 2 C4 2.66 4 3.32 4 4 C1.8125 5.4375 1.8125 5.4375 -1 7 C-1.928125 7.556875 -2.85625 8.11375 -3.8125 8.6875 C-4.534375 9.120625 -5.25625 9.55375 -6 10 C-4.34832443 6.4213696 -2.21713508 3.25179812 0 0 Z " fill="#3E558B" transform="translate(168,300)"/>
<path d="M0 0 C-0.33 1.65 -0.66 3.3 -1 5 C-2.32 5 -3.64 5 -5 5 C-4.67 5.99 -4.34 6.98 -4 8 C-5.65 8.66 -7.3 9.32 -9 10 C-5.22641509 0 -5.22641509 0 0 0 Z " fill="#A58734" transform="translate(124,222)"/>
<path d="M0 0 C0.33 0 0.66 0 1 0 C1 1.65 1 3.3 1 5 C1.99 5 2.98 5 4 5 C3.85892253 6.45880109 3.71197585 7.91703551 3.5625 9.375 C3.48128906 10.18710938 3.40007813 10.99921875 3.31640625 11.8359375 C3 14 3 14 2 16 C1.34 15.67 0.68 15.34 0 15 C0 10.05 0 5.1 0 0 Z " fill="#05196C" transform="translate(37,214)"/>
<path d="M0 0 C0.99 0 1.98 0 3 0 C2.84518205 2.70931419 2.51827919 4.46584039 0.59765625 6.4453125 C-0.89771708 7.67679642 -2.4462924 8.8429837 -4 10 C-4.33 9.01 -4.66 8.02 -5 7 C-4.01 7 -3.02 7 -2 7 C-2.33 5.68 -2.66 4.36 -3 3 C-2.34 3 -1.68 3 -1 3 C-0.67 2.01 -0.34 1.02 0 0 Z " fill="#B29035" transform="translate(359,285)"/>
<path d="M0 0 C0 4.13216408 -1.72022452 5.52467584 -4.3125 8.6875 C-5.11300781 9.68136719 -5.91351563 10.67523438 -6.73828125 11.69921875 C-7.48464844 12.45847656 -8.23101562 13.21773437 -9 14 C-9.99 14 -10.98 14 -12 14 C-11.360625 13.236875 -10.72125 12.47375 -10.0625 11.6875 C-7.85767219 9.11753287 -7.85767219 9.11753287 -7 6 C-6.34 6 -5.68 6 -5 6 C-4.731875 5.38125 -4.46375 4.7625 -4.1875 4.125 C-3 2 -3 2 0 0 Z " fill="#E3CC89" transform="translate(366,201)"/>
<path d="M0 0 C0 3.80345877 -1.13786331 4.77701015 -3.5 7.6875 C-4.1496875 8.49574219 -4.799375 9.30398437 -5.46875 10.13671875 C-5.9740625 10.75160156 -6.479375 11.36648437 -7 12 C-7.66 11.67 -8.32 11.34 -9 11 C-8.67 10.34 -8.34 9.68 -8 9 C-7.88785156 8.35546875 -7.77570313 7.7109375 -7.66015625 7.046875 C-6.81297904 4.42012435 -5.71932148 3.74355588 -3.4375 2.25 C-2.79683594 1.82203125 -2.15617187 1.3940625 -1.49609375 0.953125 C-0.75552734 0.48132813 -0.75552734 0.48132813 0 0 Z " fill="#EAD088" transform="translate(376,188)"/>
<path d="M0 0 C-0.54723683 3.37462715 -1.0549 5.08235 -3 8 C-4.32 7.67 -5.64 7.34 -7 7 C-6.22006468 2.47637516 -4.81844319 0 0 0 Z " fill="#B39244" transform="translate(278,189)"/>
<path d="M0 0 C0.99 0.33 1.98 0.66 3 1 C-0.63 4.3 -4.26 7.6 -8 11 C-8.66 10.01 -9.32 9.02 -10 8 C-9.01 8 -8.02 8 -7 8 C-6.896875 7.38125 -6.79375 6.7625 -6.6875 6.125 C-6 4 -6 4 -3 2 C-2.01 2 -1.02 2 0 2 C0 1.34 0 0.68 0 0 Z " fill="#4071A3" transform="translate(191,94)"/>
<path d="M0 0 C0 0.33 0 0.66 0 1 C-0.55985596 1.05534912 -1.11971191 1.11069824 -1.6965332 1.16772461 C-4.23555805 1.4207582 -6.774019 1.6790698 -9.3125 1.9375 C-10.19357422 2.02451172 -11.07464844 2.11152344 -11.98242188 2.20117188 C-13.25375977 2.33168945 -13.25375977 2.33168945 -14.55078125 2.46484375 C-15.72120972 2.58267212 -15.72120972 2.58267212 -16.9152832 2.70288086 C-19.18882001 2.96337997 -19.18882001 2.96337997 -22 4 C-24.1875 3.0625 -24.1875 3.0625 -26 2 C-17.32910197 -0.33447255 -8.89543642 -0.19865739 0 0 Z " fill="#7288B8" transform="translate(231,23)"/>
<path d="M0 0 C1.95825873 -0.02694851 3.91662226 -0.04637218 5.875 -0.0625 C6.96554687 -0.07410156 8.05609375 -0.08570313 9.1796875 -0.09765625 C12 0 12 0 14 1 C14 1.66 14 2.32 14 3 C12.6078125 2.7215625 12.6078125 2.7215625 11.1875 2.4375 C7.98656229 1.75876119 7.98656229 1.75876119 5 3 C4.67 3.66 4.34 4.32 4 5 C4 4.34 4 3.68 4 3 C2.68 2.34 1.36 1.68 0 1 C0 0.67 0 0.34 0 0 Z " fill="#011D6A" transform="translate(267,360)"/>
<path d="M0 0 C0.66796875 1.68359375 0.66796875 1.68359375 1 4 C-0.07421875 6.47265625 -0.07421875 6.47265625 -1.6875 9.0625 C-2.20699219 9.91972656 -2.72648437 10.77695313 -3.26171875 11.66015625 C-4.98141589 13.97498453 -6.6114535 15.41283947 -9 17 C-7.51481201 12.95698825 -5.57122002 9.38853744 -3.375 5.6875 C-2.74335938 4.61886719 -2.11171875 3.55023438 -1.4609375 2.44921875 C-0.97882813 1.64097656 -0.49671875 0.83273438 0 0 Z " fill="#DECC91" transform="translate(341,143)"/>
<path d="M0 0 C1.65 0 3.3 0 5 0 C1.29909479 3.9252025 -2.54959656 6.94580156 -7 10 C-6.67 8.68 -6.34 7.36 -6 6 C-5.01 6 -4.02 6 -3 6 C-3 5.01 -3 4.02 -3 3 C-2.34 3 -1.68 3 -1 3 C-0.67 2.01 -0.34 1.02 0 0 Z " fill="#3568A2" transform="translate(201,84)"/>
<path d="M0 0 C0 3.51663411 -0.66325487 4.27276873 -2.75 7 C-3.26046875 7.680625 -3.7709375 8.36125 -4.296875 9.0625 C-6.0384143 11.04370067 -7.83987995 12.49730779 -10 14 C-10.66 13.67 -11.32 13.34 -12 13 C-8.04 8.71 -4.08 4.42 0 0 Z " fill="#52719E" transform="translate(87,123)"/>
<path d="M0 0 C0.33 0.66 0.66 1.32 1 2 C-0.43359375 4.6015625 -0.43359375 4.6015625 -2.4375 7.625 C-3.09621094 8.62789062 -3.75492187 9.63078125 -4.43359375 10.6640625 C-4.95050781 11.43492187 -5.46742188 12.20578125 -6 13 C-6.66 12.01 -7.32 11.02 -8 10 C-7.34 9.01 -6.68 8.02 -6 7 C-5.34 7 -4.68 7 -4 7 C-3.8453125 5.824375 -3.8453125 5.824375 -3.6875 4.625 C-3 2 -3 2 0 0 Z " fill="#C0A55E" transform="translate(394,245)"/>
<path d="M0 0 C-3.45922629 2.95051654 -6.7838704 5.25855517 -11 7 C-11.99 6.67 -12.98 6.34 -14 6 C-13.34 6 -12.68 6 -12 6 C-12 5.34 -12 4.68 -12 4 C-8.13111843 0.66475727 -5.04624817 -0.13638509 0 0 Z " fill="#3D5B94" transform="translate(260,379)"/>
<path d="M0 0 C0.66 0 1.32 0 2 0 C1.48847632 3.78527521 0.79154158 5.44108688 -2 8 C-2.33 8.99 -2.66 9.98 -3 11 C-3.66 11 -4.32 11 -5 11 C-5.38613383 8.37428995 -5.38493778 6.6156121 -3.95703125 4.33203125 C-2.625 2.6875 -2.625 2.6875 0 0 Z " fill="#A0893F" transform="translate(110,237)"/>
<path d="M0 0 C0.33 0.99 0.66 1.98 1 3 C-2.33333333 6.33333333 -5.66666667 9.66666667 -9 13 C-9.66 12.67 -10.32 12.34 -11 12 C-7.37 8.04 -3.74 4.08 0 0 Z " fill="#C4AC67" transform="translate(141,198)"/>
<path d="M0 0 C2.97 0.495 2.97 0.495 6 1 C5.46375 1.226875 4.9275 1.45375 4.375 1.6875 C2.24974779 2.86198149 0.69753199 4.04815247 -1.125 5.625 C-4 8 -4 8 -6 8 C-5.6875 6.125 -5.6875 6.125 -5 4 C-4.01 3.34 -3.02 2.68 -2 2 C-1.34 2.33 -0.68 2.66 0 3 C0 2.01 0 1.02 0 0 Z " fill="#D2B76A" transform="translate(289,131)"/>
<path d="M0 0 C0 4.07624109 -1.64202171 5.45313878 -4.265625 8.4140625 C-6.61159381 10.5592502 -8.92183219 11.34039261 -12 12 C-9.42925077 7.71541795 -7.38422822 5.36073827 -3 3 C-1.24850835 1.41754725 -1.24850835 1.41754725 0 0 Z " fill="#0B4C93" transform="translate(147,66)"/>
<path d="M0 0 C0.99 0.495 0.99 0.495 2 1 C2 1.66 2 2.32 2 3 C2.66 3 3.32 3 4 3 C4.33 4.32 4.66 5.64 5 7 C6.32 7 7.64 7 9 7 C9 8.65 9 10.3 9 12 C4.33716394 8.48417174 1.27789598 5.96351455 0 0 Z " fill="#354984" transform="translate(54,257)"/>
<path d="M0 0 C0.99 0.33 1.98 0.66 3 1 C3.04898438 1.63808594 3.09796875 2.27617187 3.1484375 2.93359375 C3.22320312 3.75988281 3.29796875 4.58617187 3.375 5.4375 C3.44460937 6.26121094 3.51421875 7.08492187 3.5859375 7.93359375 C3.72257812 8.61550781 3.85921875 9.29742187 4 10 C4.66 10.33 5.32 10.66 6 11 C5.34 11.66 4.68 12.32 4 13 C1.04952165 8.38987758 -0.5497272 5.63470383 0 0 Z " fill="#374684" transform="translate(41,236)"/>
<path d="M0 0 C0.99 0.33 1.98 0.66 3 1 C2.01 2.485 2.01 2.485 1 4 C1.99 4.33 2.98 4.66 4 5 C3.34 5.66 2.68 6.32 2 7 C-0.5625 6.75 -0.5625 6.75 -3 6 C-3.33 5.34 -3.66 4.68 -4 4 C-2.68 2.68 -1.36 1.36 0 0 Z " fill="#B08E3A" transform="translate(272,78)"/>
<path d="M0 0 C-1.55500981 3.81684226 -4.03595495 6.19195732 -7 9 C-7.99 8.67 -8.98 8.34 -10 8 C-8.90653119 6.65787938 -7.7998425 5.32652025 -6.6875 4 C-5.76517578 2.88625 -5.76517578 2.88625 -4.82421875 1.75 C-3 0 -3 0 0 0 Z " fill="#BD9E56" transform="translate(286,180)"/>
<path d="M0 0 C1.33333333 0.66666667 2.66666667 1.33333333 4 2 C4 2.66 4 3.32 4 4 C3.319375 4.12375 2.63875 4.2475 1.9375 4.375 C-1.4277412 5.09100877 -4.70013425 6.02945125 -8 7 C-5.42215154 4.35247996 -3.08351902 2.05567935 0 0 Z " fill="#BA9E55" transform="translate(267,81)"/>
<path d="M0 0 C5.45769811 -0.11138159 10.61509359 0.08342019 16 1 C16 1.99 16 2.98 16 4 C12.55877133 4 9.65987197 3.29541512 6.3125 2.5 C4.54326172 2.08234375 4.54326172 2.08234375 2.73828125 1.65625 C1.83464844 1.4396875 0.93101562 1.223125 0 1 C0 0.67 0 0.34 0 0 Z " fill="#516FA1" transform="translate(223,75)"/>
<path d="M0 0 C-2.31881505 2.67901932 -4.31814468 3.66204403 -7.6875 4.6875 C-8.89986328 5.06455078 -8.89986328 5.06455078 -10.13671875 5.44921875 C-11.05904297 5.72185547 -11.05904297 5.72185547 -12 6 C-10.2890625 2.15625 -10.2890625 2.15625 -7.6875 0.75 C-4.98166314 -0.00511726 -2.79292118 -0.1595955 0 0 Z " fill="#A6863A" transform="translate(289,71)"/>
<path d="M0 0 C4.52649831 1.91118818 7.00212523 3.41664024 9 8 C8.67 8.66 8.34 9.32 8 10 C6.65787938 8.90653119 5.32652025 7.7998425 4 6.6875 C3.2575 6.07261719 2.515 5.45773437 1.75 4.82421875 C0 3 0 3 0 0 Z " fill="#977C35" transform="translate(121,323)"/>
<path d="M0 0 C0.99 0.33 1.98 0.66 3 1 C0.69 3.64 -1.62 6.28 -4 9 C-4.33 7.68 -4.66 6.36 -5 5 C-2.5625 2.25 -2.5625 2.25 0 0 Z " fill="#4269A0" transform="translate(150,132)"/>
<path d="M0 0 C1.32 0.66 2.64 1.32 4 2 C3.34 3.65 2.68 5.3 2 7 C-2.875 5.25 -2.875 5.25 -4 3 C-2.68 2.67 -1.36 2.34 0 2 C0 1.34 0 0.68 0 0 Z " fill="#041B6A" transform="translate(276,46)"/>
<path d="M0 0 C3.82097239 0.53069061 6.06171403 1.49701566 9 4 C8 5 8 5 5.625 5.25 C3 5 3 5 1.1875 3.625 C0 2 0 2 0 0 Z " fill="#AB812B" transform="translate(275,236)"/>
<path d="M0 0 C0.99 0.33 1.98 0.66 3 1 C0.14723863 3.93200474 -2.65079784 6.64315404 -6 9 C-5.70381606 5.44579276 -5.19662957 4.19662957 -2.625 1.625 C-1.325625 0.820625 -1.325625 0.820625 0 0 Z " fill="#37699E" transform="translate(179,104)"/>
<path d="M0 0 C0 0.99 0 1.98 0 3 C-3.3 3.33 -6.6 3.66 -10 4 C-10 3.34 -10 2.68 -10 2 C-8.7090864 1.66376204 -7.41723903 1.33110751 -6.125 1 C-5.40570313 0.814375 -4.68640625 0.62875 -3.9453125 0.4375 C-2 0 -2 0 0 0 Z " fill="#A47B1D" transform="translate(306,337)"/>
<path d="M0 0 C0.33 0.66 0.66 1.32 1 2 C0.195625 2.763125 -0.60875 3.52625 -1.4375 4.3125 C-4.16799024 6.79430898 -4.16799024 6.79430898 -5 10 C-6.32 9.67 -7.64 9.34 -9 9 C-6.03 6.03 -3.06 3.06 0 0 Z " fill="#BBA567" transform="translate(372,241)"/>
<path d="M0 0 C0.66 0 1.32 0 2 0 C1.8125 2.3125 1.8125 2.3125 1 5 C-1.5625 6.8125 -1.5625 6.8125 -4 8 C-4.33 7.01 -4.66 6.02 -5 5 C-3.68 4.67 -2.36 4.34 -1 4 C-0.67 2.68 -0.34 1.36 0 0 Z " fill="#3464A0" transform="translate(161,120)"/>
<path d="M0 0 C4.10958767 1.45044271 7.43258745 3.51110752 11 6 C9.68 6.33 8.36 6.66 7 7 C6.67 6.01 6.34 5.02 6 4 C4.68 4 3.36 4 2 4 C2 3.34 2 2.68 2 2 C1.01 1.67 0.02 1.34 -1 1 C-0.67 0.67 -0.34 0.34 0 0 Z " fill="#495889" transform="translate(257,32)"/>
<path d="M0 0 C0.99 0 1.98 0 3 0 C3 1.98 3 3.96 3 6 C1.68 6.33 0.36 6.66 -1 7 C-0.67 4.69 -0.34 2.38 0 0 Z " fill="#865B08" transform="translate(130,324)"/>
<path d="M0 0 C0.66 0 1.32 0 2 0 C3.36884358 4.51718381 2.47075246 7.58774263 1 12 C0.67 12 0.34 12 0 12 C0 8.04 0 4.08 0 0 Z " fill="#031A68" transform="translate(37,201)"/>
<path d="M0 0 C0.33 0.66 0.66 1.32 1 2 C0.38125 2.5775 -0.2375 3.155 -0.875 3.75 C-2.81347053 5.80249821 -3.90014249 7.43366582 -5 10 C-5.99 10 -6.98 10 -8 10 C-6.34908222 5.70761377 -3.26245434 3.1206085 0 0 Z " fill="#486493" transform="translate(74,137)"/>
<path d="M0 0 C0.99 0.66 1.98 1.32 3 2 C-0.465 4.97 -0.465 4.97 -4 8 C-4 6.68 -4 5.36 -4 4 C-3.34 4 -2.68 4 -2 4 C-2 3.01 -2 2.02 -2 1 C-1.34 0.67 -0.68 0.34 0 0 Z " fill="#4165A0" transform="translate(142,140)"/>
<path d="M0 0 C1.32 0 2.64 0 4 0 C3.75 1.875 3.75 1.875 3 4 C0.9375 5.25 0.9375 5.25 -1 6 C-1.042721 4.33388095 -1.04063832 2.66617115 -1 1 C-0.67 0.67 -0.34 0.34 0 0 Z " fill="#BB9946" transform="translate(324,245)"/>
<path d="M0 0 C0.33 1.32 0.66 2.64 1 4 C-1.97 6.475 -1.97 6.475 -5 9 C-5 4.61031544 -2.87194899 3.23094261 0 0 Z " fill="#B59F5E" transform="translate(383,227)"/>
<path d="M0 0 C0.99 0 1.98 0 3 0 C1.4169423 4.2742558 -1.50568404 6.26531794 -5 9 C-5 8.01 -5 7.02 -5 6 C-4.34 6 -3.68 6 -3 6 C-3 5.34 -3 4.68 -3 4 C-2.34 4 -1.68 4 -1 4 C-0.67 2.68 -0.34 1.36 0 0 Z " fill="#D8C182" transform="translate(206,209)"/>
<path d="M0 0 C1.32 0.66 2.64 1.32 4 2 C2.35 3.65 0.7 5.3 -1 7 C-1 6.01 -1 5.02 -1 4 C-1.66 3.67 -2.32 3.34 -3 3 C-2.01 2.01 -1.02 1.02 0 0 Z " fill="#D0AF56" transform="translate(279,137)"/>
<path d="M0 0 C0 0.66 0 1.32 0 2 C-2.5 3.625 -2.5 3.625 -5 5 C-5 4.34 -5 3.68 -5 3 C-6.98 3 -8.96 3 -11 3 C-11 2.67 -11 2.34 -11 2 C-3.375 0 -3.375 0 0 0 Z " fill="#7386A5" transform="translate(289,356)"/>
<path d="M0 0 C0.66 0 1.32 0 2 0 C1.52797514 4.24822374 -0.96655518 6.19989709 -4 9 C-4.33 8.01 -4.66 7.02 -5 6 C-4.34 6 -3.68 6 -3 6 C-3 5.34 -3 4.68 -3 4 C-2.34 4 -1.68 4 -1 4 C-0.67 2.68 -0.34 1.36 0 0 Z " fill="#C3A453" transform="translate(182,235)"/>
<path d="M0 0 C0.99 0.33 1.98 0.66 3 1 C0.36 3.64 -2.28 6.28 -5 9 C-5.66 8.67 -6.32 8.34 -7 8 C-4.79020692 5.18060883 -2.59937954 2.46941056 0 0 Z " fill="#EDD999" transform="translate(242,174)"/>
<path d="M0 0 C0.66 0.33 1.32 0.66 2 1 C-0.38957269 4.24299151 -2.2047869 6.50902342 -6 8 C-4.55746343 4.63408134 -2.66735273 2.48952921 0 0 Z " fill="#28599D" transform="translate(182,34)"/>
<path d="M0 0 C0.33 1.65 0.66 3.3 1 5 C-1.02045442 4.39816251 -3.02111039 3.72693904 -5 3 C-5.33 2.34 -5.66 1.68 -6 1 C-3 0 -3 0 0 0 Z " fill="#324B98" transform="translate(187,376)"/>
<path d="M0 0 C4.875 2.75 4.875 2.75 6 5 C5.34 5 4.68 5 4 5 C2.37485532 6.45833358 2.37485532 6.45833358 1 8 C1.33 6.35 1.66 4.7 2 3 C1.01 2.67 0.02 2.34 -1 2 C-0.67 1.34 -0.34 0.68 0 0 Z " fill="#BD9F5B" transform="translate(260,266)"/>
<path d="M0 0 C1.98 1.65 3.96 3.3 6 5 C5.01 5.66 4.02 6.32 3 7 C2.01 6.34 1.02 5.68 0 5 C-0.1875 2.375 -0.1875 2.375 0 0 Z " fill="#B89A58" transform="translate(237,245)"/>
<path d="M0 0 C0 3.28176588 -0.47835901 5.10888212 -2 8 C-3.32 8.33 -4.64 8.66 -6 9 C-4.02 6.03 -2.04 3.06 0 0 Z " fill="#AD9756" transform="translate(116,228)"/>
<path d="M0 0 C0 0.66 0 1.32 0 2 C-1.65071396 3.02611949 -3.31970006 4.02308143 -5 5 C-6.75149165 6.58245275 -6.75149165 6.58245275 -8 8 C-8.66 7.67 -9.32 7.34 -10 7 C-4.4893617 0 -4.4893617 0 0 0 Z " fill="#CDB36B" transform="translate(162,179)"/>
<path d="M0 0 C0.66 0 1.32 0 2 0 C0.68775452 3.93673644 -0.91910327 6.22719294 -4 9 C-4 7.68 -4 6.36 -4 5 C-3.34 5 -2.68 5 -2 5 C-1.7834375 4.0409375 -1.7834375 4.0409375 -1.5625 3.0625 C-1 1 -1 1 0 0 Z " fill="#3C5089" transform="translate(112,174)"/>
<path d="M0 0 C1.32 0.33 2.64 0.66 4 1 C4 1.66 4 2.32 4 3 C1.6875 4.6875 1.6875 4.6875 -1 6 C-1.99 5.67 -2.98 5.34 -4 5 C-4 4.34 -4 3.68 -4 3 C-2.68 2.67 -1.36 2.34 0 2 C0 1.34 0 0.68 0 0 Z " fill="#2D5F9F" transform="translate(209,78)"/>
<path d="M0 0 C1.1446875 1.175625 1.1446875 1.175625 2.3125 2.375 C4.90891805 5.07257717 4.90891805 5.07257717 8 7 C7.67 7.66 7.34 8.32 7 9 C3.64564078 7.61198929 1.88709697 6.11371 0 3 C0 2.01 0 1.02 0 0 Z " fill="#A58C40" transform="translate(98,300)"/>
<path d="M0 0 C0.99 0 1.98 0 3 0 C2.67 1.98 2.34 3.96 2 6 C1.01 5.67 0.02 5.34 -1 5 C-0.67 3.35 -0.34 1.7 0 0 Z " fill="#9E7B14" transform="translate(205,282)"/>
<path d="M0 0 C1.24546405 2.49092811 0.7767578 3.41080733 0 6 C0.66 6.33 1.32 6.66 2 7 C1.67 7.66 1.34 8.32 1 9 C-0.32 8.01 -1.64 7.02 -3 6 C-2.42655063 3.13275314 -2.1385485 2.1385485 0 0 Z " fill="#B09E64" transform="translate(195,271)"/>
<path d="M0 0 C0.33 0.99 0.66 1.98 1 3 C-1.31 4.98 -3.62 6.96 -6 9 C-6.66 8.67 -7.32 8.34 -8 8 C-5.36 5.36 -2.72 2.72 0 0 Z " fill="#BCA764" transform="translate(354,259)"/>
<path d="M0 0 C1.32 0.33 2.64 0.66 4 1 C1.60490662 3.89932357 -0.31245243 4.50168276 -4 5 C-2.68 3.35 -1.36 1.7 0 0 Z " fill="#AC9447" transform="translate(210,256)"/>
<path d="M0 0 C0.33 0 0.66 0 1 0 C0.38461538 6.52307692 0.38461538 6.52307692 -1.5625 8.9375 C-2.036875 9.288125 -2.51125 9.63875 -3 10 C-3 8.02 -3 6.04 -3 4 C-2.01 3.67 -1.02 3.34 0 3 C0 2.01 0 1.02 0 0 Z " fill="#354982" transform="translate(94,198)"/>
<path d="M0 0 C0.66 0.33 1.32 0.66 2 1 C0.02 3.31 -1.96 5.62 -4 8 C-4.66 7.34 -5.32 6.68 -6 6 C-4.02 4.02 -2.04 2.04 0 0 Z " fill="#CBB06F" transform="translate(308,188)"/>
<path d="M0 0 C0.66 0.99 1.32 1.98 2 3 C1.25 6.125 1.25 6.125 0 9 C-0.99 9.495 -0.99 9.495 -2 10 C-1.34 6.7 -0.68 3.4 0 0 Z " fill="#D7BF7C" transform="translate(343,139)"/>
<path d="M0 0 C0.33 1.32 0.66 2.64 1 4 C-1.475 5.485 -1.475 5.485 -4 7 C-4 4 -4 4 -2 1.8125 C-1.34 1.214375 -0.68 0.61625 0 0 Z " fill="#5578A6" transform="translate(103,106)"/>
<path d="M0 0 C-0.3125 1.9375 -0.3125 1.9375 -1 4 C-1.99 4.33 -2.98 4.66 -4 5 C-4.66 4.34 -5.32 3.68 -6 3 C-3.375 0 -3.375 0 0 0 Z " fill="#255A96" transform="translate(123,90)"/>
<path d="M0 0 C0.66 0.33 1.32 0.66 2 1 C2 1.99 2 2.98 2 4 C0.02 4.66 -1.96 5.32 -4 6 C-2.68 4.02 -1.36 2.04 0 0 Z " fill="#4370AE" transform="translate(158,53)"/>
<path d="M0 0 C0.763125 0.0825 1.52625 0.165 2.3125 0.25 C0.6625 1.9 -0.9875 3.55 -2.6875 5.25 C-3.6775 4.92 -4.6675 4.59 -5.6875 4.25 C-3.34903846 0.31153846 -3.34903846 0.31153846 0 0 Z " fill="#41609D" transform="translate(275.6875,365.75)"/>
<path d="M0 0 C3.465 1.485 3.465 1.485 7 3 C5.1875 4.0625 5.1875 4.0625 3 5 C2.01 4.67 1.02 4.34 0 4 C0 2.68 0 1.36 0 0 Z " fill="#42568C" transform="translate(216,341)"/>
<path d="M0 0 C-0.33 2.31 -0.66 4.62 -1 7 C-1.66 7 -2.32 7 -3 7 C-3.6875 5.1875 -3.6875 5.1875 -4 3 C-1.64285714 0 -1.64285714 0 0 0 Z " fill="#9D7B2C" transform="translate(144,286)"/>
<path d="M0 0 C1.98 0.495 1.98 0.495 4 1 C3.67 2.65 3.34 4.3 3 6 C1.68 5.01 0.36 4.02 -1 3 C-0.67 2.01 -0.34 1.02 0 0 Z " fill="#263A7E" transform="translate(68,271)"/>
<path d="M0 0 C0.66 0.33 1.32 0.66 2 1 C0.35 3.64 -1.3 6.28 -3 9 C-3.33 7.68 -3.66 6.36 -4 5 C-2.0625 2.25 -2.0625 2.25 0 0 Z " fill="#E3CC8E" transform="translate(381,179)"/>
<path d="M0 0 C4.875 4.75 4.875 4.75 6 7 C4.02 6.34 2.04 5.68 0 5 C0 3.35 0 1.7 0 0 Z " fill="#C9A65E" transform="translate(374,135)"/>
<path d="M0 0 C1 2 1 2 0.25 4.5625 C-1 7 -1 7 -4 8 C-2.87548273 5.0280615 -1.77706209 2.66559313 0 0 Z " fill="#4A639A" transform="translate(161,310)"/>
<path d="M0 0 C2.125 0.375 2.125 0.375 4 1 C2.35 2.65 0.7 4.3 -1 6 C-1.625 4.125 -1.625 4.125 -2 2 C-1.34 1.34 -0.68 0.68 0 0 Z " fill="#BD9E4D" transform="translate(372,273)"/>
<path d="M0 0 C0.33 0.66 0.66 1.32 1 2 C1.99 2.33 2.98 2.66 4 3 C3.67 3.66 3.34 4.32 3 5 C1.125 4.6875 1.125 4.6875 -1 4 C-1.66 3.01 -2.32 2.02 -3 1 C-2.01 0.67 -1.02 0.34 0 0 Z " fill="#AF8E39" transform="translate(292,249)"/>
</svg>
